PathFileType	4	(X/Y/Z)	RBDS020\RBDS020runT35.trc
DataRate	CameraRate	NumFrames	NumMarkers	Units	OrigDataRate	OrigDataStartFrame	OrigNumFrames
150.000000	150.000000	4	33	mm	150.000000	1125	4500
Frame#	Time	L.ASIS			L.Heel.Bottom			L.Heel.Lateral			L.Heel.Top			L.Iliac.Crest			L.MT1			L.MT5			L.PSIS			L.Shank.Bottom.Lateral			L.Shank.Bottom.Medial			L.Shank.Top.Lateral			L.Shank.Top.Medial			L.Thigh.Bottom.Lateral			L.Thigh.Bottom.Medial			L.Thigh.Top.Lateral			L.Thigh.Top.Medial			R.ASIS			R.ASY			R.Heel.Bottom			R.Heel.Lateral			R.Heel.Top			R.Iliac.Crest			R.MT1			R.MT5			R.PSIS			R.Shank.Bottom.Lateral			R.Shank.Bottom.Medial			R.Shank.Top.Lateral			R.Shank.Top.Medial			R.Thigh.Bottom.Lateral			R.Thigh.Bottom.Medial			R.Thigh.Top.Lateral			R.Thigh.Top.Medial			
		X1	Y1	Z1	X2	Y2	Z2	X3	Y3	Z3	X4	Y4	Z4	X5	Y5	Z5	X6	Y6	Z6	X7	Y7	Z7	X8	Y8	Z8	X9	Y9	Z9	X10	Y10	Z10	X11	Y11	Z11	X12	Y12	Z12	X13	Y13	Z13	X14	Y14	Z14	X15	Y15	Z15	X16	Y16	Z16	X17	Y17	Z17	X18	Y18	Z18	X19	Y19	Z19	X20	Y20	Z20	X21	Y21	Z21	X22	Y22	Z22	X23	Y23	Z23	X24	Y24	Z24	X25	Y25	Z25	X26	Y26	Z26	X27	Y27	Z27	X28	Y28	Z28	X29	Y29	Z29	X30	Y30	Z30	X31	Y31	Z31	X32	Y32	Z32	X33	Y33	Z33	

1126	7.500000000000001	2200.264953803535	980.2346057039173	927.0846112688281	1690.938322596197	405.9752792006464	1015.544769888523	1709.828770050054	396.2563946952705	965.9063713716521	1738.700947225923	403.1902720174637	1010.264888686029	2146.029405074949	1023.991764506468	890.8425355291663	1736.103946315512	190.2743312790978	986.6326702808991	1708.634446412859	248.5847031328501	896.9049838023321	2034.779104575754	1011.151184697288	984.2623109965318	1827.612870828947	374.8547780839946	922.9270649199422	1823.374292188823	408.6037283155694	967.1106133460977	1899.10495934338	407.6077063857813	906.4250596175006	1896.457126751742	439.5744339430559	949.3208798287866	2155.723528573239	627.9014166773915	858.5781624724702	2090.726439456768	617.4654201846449	889.8803439223063	2135.768188773001	735.4221679842123	853.8409829885028	2074.550392300927	725.6955563109375	886.4153072450295	2184.055082001787	985.6761542971863	1161.173701338468	2253.707874527923	78.04770704123159	1096.35562137589	2064.877928125342	28.5611065518793	1074.199043490131	2087.543436278175	44.55964248479489	1120.335294920866	2074.10825022338	70.70577247567438	1074.71060006376	2123.961480248066	1021.719376186311	1193.13762510969	2280.412185426848	44.17504582032564	1054.047983790027	2249.197387855442	36.81658720225013	1161.645305332122	2027.653832514827	1013.348273128911	1080.504937802533	2172.302690260329	172.6411004439525	1144.919303968219	2131.065492572298	191.9589735968173	1119.909225430833	2194.382904410525	252.3876155755415	1165.20271402874	2149.329633438575	268.3063528646445	1140.687111046004	2195.85176221456	609.748810379689	1192.002554400554	2145.806193847947	588.8767316367224	1145.331559332348	2144.522701417817	707.6756130753578	1201.429787404893	2097.910442252612	687.4796897560655	1156.178199323521	
1127	7.506666666666667	2197.222752522203	978.3586596887282	926.7892486965525	1704.704200520923	403.0365025445358	1011.786210835295	1724.755138924194	393.0864773720902	962.6395269788668	1752.593784482422	401.1229076450788	1007.220199590771	2141.652023407407	1020.687824779826	890.255811630911	1754.783995647618	188.1514388876025	986.9386966240123	1727.982328289939	244.6099760491173	895.9410793095383	2031.631439553202	1008.887677774536	984.4478341224731	1843.949851941091	372.8912369839367	921.6273956100241	1839.143650746668	407.1577817833468	965.3195348846996	1915.513423236349	405.7269373333387	905.4154811004203	1912.307377494799	438.1762165615517	947.8726127798287	2163.954124550703	627.2933774500245	858.7891764328422	2098.971353427966	614.3598057555799	889.2437823607089	2140.251268576402	734.055722567704	854.4671730678874	2079.037655567276	721.990504102887	886.2862964191711	2182.282012729693	983.7070064350091	1161.256155224661	2230.197768663795	78.26560009046433	1096.47035379391	2041.654894373635	28.65611795498583	1074.418413605783	2064.249313643159	44.75808827798483	1120.551692558417	2050.755489487522	70.81359643717171	1074.95559709463	2121.812712840037	1018.529634089459	1193.133968663401	2257.024579804121	44.78845011939907	1054.47414900957	2225.859913767426	37.46870330810421	1161.871671091688	2025.18063886269	1011.528387317154	1080.390873064023	2152.739082478731	172.1321707489714	1145.078752905269	2111.996364751794	192.9169724891979	1120.361696036128	2177.812567037084	251.0287763111625	1165.324293170144	2133.175529496209	268.5552168918002	1141.19844889718	2189.00933262281	607.401059800537	1192.751083831866	2138.651378124768	587.3562651362143	1146.057290008895	2139.340572230718	706.1125346469377	1202.137906488264	2092.399625924641	686.6761568197373	1156.92252255645	
1128	7.513333333333334	2194.265115181172	977.233850707477	926.468544388329	1718.45105558662	398.826411505553	1007.572857709443	1739.831271893479	388.670028778564	959.0326573836372	1766.445032196324	398.0713261602502	1003.821820841616	2137.267813410828	1018.302085568853	889.6881474045058	1774.642523484487	185.2047054706559	987.5408132796497	1748.434665375164	239.3995080192003	895.0895542802936	2028.758800123537	1007.576207471494	984.6523547408382	1860.56243194454	370.3756368921963	920.2699894399099	1854.907251343034	405.1928769915809	963.3943399713579	1932.038842215313	403.6742049535954	904.4080659387652	1927.987972881758	436.6682401452235	946.3577161442187	2172.00319768894	627.7110571595301	859.1735521102321	2107.177687144961	612.3202184833465	888.8954376228761	2144.556968191392	733.5823534772522	855.1281696023175	2083.462010964005	719.2195325553996	886.2506090059672	2180.723698241784	982.2441040821716	1161.17147930805	2206.575612266497	78.57697329130372	1096.856487198007	2018.383710586049	28.66831174494265	1074.694638245046	2040.869909194014	44.81669518212122	1120.881638858322	2027.306390232325	70.84751213226787	1075.344662943094	2120.005629310564	1016.197749951606	1193.022871831336	2233.571214670614	45.47777800056947	1055.042604024119	2202.439621989672	38.00038805500677	1162.228500800349	2023.058743824206	1010.643243183455	1080.378969270158	2132.504390533544	171.6449559151424	1145.454683433526	2092.327771437655	193.6980546542556	1120.926492823837	2160.235246533542	249.6757235948814	1165.612762638413	2116.093585649694	268.5909850084727	1141.724817189968	2181.060924937286	605.2854373059801	1193.414062888068	2130.263762956912	586.2395692537943	1146.799383770476	2133.471034510465	704.9439142325103	1202.751095390551	2086.097432634771	686.4497908016663	1157.615461212859	
1129	7.52	2191.48542948649	976.9230724902515	926.1651478338878	1732.212002785816	393.2940903161917	1003.09915165391	1755.030306564702	382.9996497648514	955.2419919860982	1780.262273880449	393.9850683549914	1000.203231479036	2133.062699450021	1016.949910315264	889.1701682581843	1795.571165404675	181.4726740307768	988.3990378447515	1769.818821519058	233.0678184483026	894.3957949821126	2026.232844859661	1007.228424946029	984.894572102108	1877.34314079925	367.3245065643768	918.894671791594	1870.574153531439	402.6829493272948	961.4004475457681	1948.550345377196	401.4772875718667	903.430853904728	1943.386002577916	435.0344889950945	944.8242201001177	2179.805949729752	629.1574149530765	859.6905114908476	2115.291668119396	611.3776768995243	888.833229489265	2148.656893768608	734.0123056421851	855.776810446344	2087.80173791651	717.4142895328997	886.2868578040998	2179.396975948726	981.2669107228761	1160.940996877512	2182.87978551869	78.89032006272051	1097.443165943571	1995.014651326617	28.68609722313369	1075.027053275697	2017.386916108124	44.81273552107595	1121.311087168358	2003.763714523587	70.89247967681011	1075.85891060851	2118.657676918281	1014.783894859556	1192.827642180955	2210.040349407192	46.10322418874554	1055.682967586078	2178.92271328659	38.34262735515426	1162.674062703996	2021.337390150727	1010.669756940789	1080.501561889581	2111.656160874662	171.234240122509	1145.989853579198	2072.093885065591	194.3609156883469	1121.552015186582	2141.712590525528	248.4152654941877	1166.032339531287	2098.125339422809	268.5076011329461	1142.224266581199	2172.089352137913	603.4692250908256	1193.972734771444	2120.736386317432	585.583504065682	1147.541937777326	2126.970639399681	704.2050530640562	1203.255612766786	2079.067897293561	686.8232295391471	1158.247959012298	
